<svg width="1201" height="651" xmlns="http://www.w3.org/2000/svg" xmlns:xlink="http://www.w3.org/1999/xlink" fill="#ffffff"><defs><style>
  text {
    fill: #212529;
    font-family: Helvetica Neue, Helvetica, Arial, sans-serif;
    font-size: 16px;
  }

  marker, text {
    fill-opacity: 1;
  }

  * {
    overflow: visible;
  }
</style></defs><svg x="390" y="20" width="290" height="180" class="Web Server" fill="#ffffff"><g><g><path d="M 0 8 l 8 -8 H 290 l -8 8 Z" stroke="black" fill="white" class="sc-gEvEer fkqzOi"></path><path d="M 290 0 V 172 l -8 8 V 8 Z" stroke="black" fill="white" class="sc-gEvEer fkqzOi"></path><rect x="0" y="8" width="282" height="171" stroke="black" fill="white" class="sc-fqkvVR uHYUy"></rect></g><text x="50%" y="30" dominant-baseline="middle" text-anchor="middle" font-weight="bold" pointer-events="none"><tspan x="50%" dy="-8" text-anchor="middle" font-size="85%">«node»</tspan><tspan x="50%" dy="18" text-decoration="underline" text-anchor="middle">Web Server</tspan></text></g></svg><svg x="460" y="90" width="160" height="40" class="App web" fill="#ffffff"><g><rect width="100%" height="100%" stroke="black" fill="white" class="sc-fqkvVR uHYUy"></rect><text x="50%" y="28" dominant-baseline="auto" text-anchor="middle" font-weight="bold" pointer-events="none">App web</text><g transform="translate(134, 7)"><path d="M 0 0 L 13 0 L 19.2 7.25 L 19.2 24 L 0 24 L 0 0 Z" stroke-width="1.2" stroke-miterlimit="10" stroke="black" fill="white" class="sc-gEvEer fkqzOi"></path><path d="M 13 0 L 13 7.25 L 19.2 7.25" stroke-width="1.2" stroke-miterlimit="10" stroke="black" fill="none" class="sc-gEvEer bFSwyf"></path></g></g></svg><svg x="440" y="150" width="180" height="40" class="dashboard operatore" fill="#ffffff"><g><rect width="100%" height="100%" stroke="black" fill="white" class="sc-fqkvVR uHYUy"></rect><text x="50%" y="28" dominant-baseline="auto" text-anchor="middle" font-weight="bold" pointer-events="none">dashboard operatore</text><g transform="translate(154, 7)"><path d="M 0 0 L 13 0 L 19.2 7.25 L 19.2 24 L 0 24 L 0 0 Z" stroke-width="1.2" stroke-miterlimit="10" stroke="black" fill="white" class="sc-gEvEer fkqzOi"></path><path d="M 13 0 L 13 7.25 L 19.2 7.25" stroke-width="1.2" stroke-miterlimit="10" stroke="black" fill="none" class="sc-gEvEer bFSwyf"></path></g></g></svg><svg x="930" y="30" width="250" height="150" class="Disp. utente" fill="#ffffff"><g><g><path d="M 0 8 l 8 -8 H 250 l -8 8 Z" stroke="black" fill="white" class="sc-gEvEer fkqzOi"></path><path d="M 250 0 V 142 l -8 8 V 8 Z" stroke="black" fill="white" class="sc-gEvEer fkqzOi"></path><rect x="0" y="8" width="242" height="141" stroke="black" fill="white" class="sc-fqkvVR uHYUy"></rect></g><text x="50%" y="30" dominant-baseline="middle" text-anchor="middle" font-weight="bold" pointer-events="none"><tspan x="50%" dy="-8" text-anchor="middle" font-size="85%">«node»</tspan><tspan x="50%" dy="18" text-decoration="underline" text-anchor="middle">Disp. utente</tspan></text></g></svg><svg x="980" y="100" width="160" height="60" class="Browser" fill="#ffffff"><g><g><path d="M 0 8 l 8 -8 H 160 l -8 8 Z" stroke="black" fill="white" class="sc-gEvEer fkqzOi"></path><path d="M 160 0 V 52 l -8 8 V 8 Z" stroke="black" fill="white" class="sc-gEvEer fkqzOi"></path><rect x="0" y="8" width="152" height="51" stroke="black" fill="white" class="sc-fqkvVR uHYUy"></rect></g><text x="50%" y="30" dominant-baseline="middle" text-anchor="middle" font-weight="bold" pointer-events="none"><tspan x="50%" dy="-8" text-anchor="middle" font-size="85%">«exec. env»</tspan><tspan x="50%" dy="18" text-decoration="underline" text-anchor="middle">Browser</tspan></text></g></svg><svg x="390" y="330" width="250" height="150" class="Application server" fill="#ffffff"><g><g><path d="M 0 8 l 8 -8 H 250 l -8 8 Z" stroke="black" fill="white" class="sc-gEvEer fkqzOi"></path><path d="M 250 0 V 142 l -8 8 V 8 Z" stroke="black" fill="white" class="sc-gEvEer fkqzOi"></path><rect x="0" y="8" width="242" height="141" stroke="black" fill="white" class="sc-fqkvVR uHYUy"></rect></g><text x="50%" y="30" dominant-baseline="middle" text-anchor="middle" font-weight="bold" pointer-events="none"><tspan x="50%" dy="-8" text-anchor="middle" font-size="85%">«node»</tspan><tspan x="50%" dy="18" text-decoration="underline" text-anchor="middle">Application server</tspan></text></g></svg><svg x="430" y="400" width="160" height="40" class="Back end API" fill="#ffffff"><g><rect width="100%" height="100%" stroke="black" fill="white" class="sc-fqkvVR uHYUy"></rect><text x="50%" y="28" dominant-baseline="auto" text-anchor="middle" font-weight="bold" pointer-events="none">Back end API</text><g transform="translate(134, 7)"><path d="M 0 0 L 13 0 L 19.2 7.25 L 19.2 24 L 0 24 L 0 0 Z" stroke-width="1.2" stroke-miterlimit="10" stroke="black" fill="white" class="sc-gEvEer fkqzOi"></path><path d="M 13 0 L 13 7.25 L 19.2 7.25" stroke-width="1.2" stroke-miterlimit="10" stroke="black" fill="none" class="sc-gEvEer bFSwyf"></path></g></g></svg><svg x="920" y="450" width="250" height="70" class="OpenStreatMap" fill="#ffffff"><g><g><path d="M 0 8 l 8 -8 H 250 l -8 8 Z" stroke="black" fill="white" class="sc-gEvEer fkqzOi"></path><path d="M 250 0 V 62 l -8 8 V 8 Z" stroke="black" fill="white" class="sc-gEvEer fkqzOi"></path><rect x="0" y="8" width="242" height="61" stroke="black" fill="white" class="sc-fqkvVR uHYUy"></rect></g><text x="50%" y="30" dominant-baseline="middle" text-anchor="middle" font-weight="bold" pointer-events="none"><tspan x="50%" dy="-8" text-anchor="middle" font-size="85%">«external system»</tspan><tspan x="50%" dy="18" text-decoration="underline" text-anchor="middle">OpenStreatMap</tspan></text></g></svg><svg x="20" y="330" width="250" height="150" class="DB server" fill="#ffffff"><g><g><path d="M 0 8 l 8 -8 H 250 l -8 8 Z" stroke="black" fill="white" class="sc-gEvEer fkqzOi"></path><path d="M 250 0 V 142 l -8 8 V 8 Z" stroke="black" fill="white" class="sc-gEvEer fkqzOi"></path><rect x="0" y="8" width="242" height="141" stroke="black" fill="white" class="sc-fqkvVR uHYUy"></rect></g><text x="50%" y="30" dominant-baseline="middle" text-anchor="middle" font-weight="bold" pointer-events="none"><tspan x="50%" dy="-8" text-anchor="middle" font-size="85%">«node»</tspan><tspan x="50%" dy="18" text-decoration="underline" text-anchor="middle">DB server</tspan></text></g></svg><svg x="60" y="400" width="160" height="40" class="Database" fill="#ffffff"><g><rect width="100%" height="100%" stroke="black" fill="white" class="sc-fqkvVR uHYUy"></rect><text x="50%" y="28" dominant-baseline="auto" text-anchor="middle" font-weight="bold" pointer-events="none">Database</text><g transform="translate(134, 7)"><path d="M 0 0 L 13 0 L 19.2 7.25 L 19.2 24 L 0 24 L 0 0 Z" stroke-width="1.2" stroke-miterlimit="10" stroke="black" fill="white" class="sc-gEvEer fkqzOi"></path><path d="M 13 0 L 13 7.25 L 19.2 7.25" stroke-width="1.2" stroke-miterlimit="10" stroke="black" fill="none" class="sc-gEvEer bFSwyf"></path></g></g></svg><svg x="780" y="260" width="250" height="70" class="Sistema di notifica" fill="#ffffff"><g><g><path d="M 0 8 l 8 -8 H 250 l -8 8 Z" stroke="black" fill="white" class="sc-gEvEer fkqzOi"></path><path d="M 250 0 V 62 l -8 8 V 8 Z" stroke="black" fill="white" class="sc-gEvEer fkqzOi"></path><rect x="0" y="8" width="242" height="61" stroke="black" fill="white" class="sc-fqkvVR uHYUy"></rect></g><text x="50%" y="30" dominant-baseline="middle" text-anchor="middle" font-weight="bold" pointer-events="none"><tspan x="50%" dy="-8" text-anchor="middle" font-size="85%">«external system»</tspan><tspan x="50%" dy="18" text-decoration="underline" text-anchor="middle">Sistema di notifica</tspan></text></g></svg><svg x="390" y="540" width="250" height="70" class="Sistema di autenticazione" fill="#ffffff"><g><g><path d="M 0 8 l 8 -8 H 250 l -8 8 Z" stroke="black" fill="white" class="sc-gEvEer fkqzOi"></path><path d="M 250 0 V 62 l -8 8 V 8 Z" stroke="black" fill="white" class="sc-gEvEer fkqzOi"></path><rect x="0" y="8" width="242" height="61" stroke="black" fill="white" class="sc-fqkvVR uHYUy"></rect></g><text x="50%" y="30" dominant-baseline="middle" text-anchor="middle" font-weight="bold" pointer-events="none"><tspan x="50%" dy="-8" text-anchor="middle" font-size="85%">«external system»</tspan><tspan x="50%" dy="18" text-decoration="underline" text-anchor="middle">Sistema di autenticazione</tspan></text></g></svg><svg x="710" y="560" width="250" height="70" class="Sistema di e-mail" fill="#ffffff"><g><g><path d="M 0 8 l 8 -8 H 250 l -8 8 Z" stroke="black" fill="white" class="sc-gEvEer fkqzOi"></path><path d="M 250 0 V 62 l -8 8 V 8 Z" stroke="black" fill="white" class="sc-gEvEer fkqzOi"></path><rect x="0" y="8" width="242" height="61" stroke="black" fill="white" class="sc-fqkvVR uHYUy"></rect></g><text x="50%" y="30" dominant-baseline="middle" text-anchor="middle" font-weight="bold" pointer-events="none"><tspan x="50%" dy="-8" text-anchor="middle" font-size="85%">«external system»</tspan><tspan x="50%" dy="18" text-decoration="underline" text-anchor="middle">Sistema di e-mail</tspan></text></g></svg><svg x="680" y="65" width="250" height="41" class="HTTPS" fill="#ffffff"><g><polyline points="0 40,250 40" stroke-width="1" stroke="black" fill="none" class="sc-aXZVg eMElBf"></polyline><text x="125" y="40" dominant-baseline="text-after-edge" text-anchor="middle" font-weight="bold" pointer-events="none" dy="-5">HTTPS</text></g></svg><svg x="515" y="200" width="57.41666793823242" height="130" class="HTTPS" fill="#ffffff"><g><polyline points="0 130,0 0" stroke-width="1" stroke="black" fill="none" class="sc-aXZVg eMElBf"></polyline><text x="0" y="65" dominant-baseline="middle" text-anchor="start" font-weight="bold" pointer-events="none" dx="5">HTTPS</text></g></svg><svg x="640" y="405" width="280" height="80" class="HTTPS" fill="#ffffff"><g><polyline points="280 80,140 80,140 0,0 0" stroke-width="1" stroke="black" fill="none" class="sc-aXZVg eMElBf"></polyline><text x="140" y="40" dominant-baseline="middle" text-anchor="start" font-weight="bold" pointer-events="none" dx="5">HTTPS</text></g></svg><svg x="270" y="365" width="120" height="41" class="TCP" fill="#ffffff"><g><polyline points="0 40,120 40" stroke-width="1" stroke="black" fill="none" class="sc-aXZVg eMElBf"></polyline><text x="60" y="40" dominant-baseline="text-after-edge" text-anchor="middle" font-weight="bold" pointer-events="none" dy="-5">TCP</text></g></svg><svg x="640" y="295" width="140" height="110" class="HTTPS" fill="#ffffff"><g><polyline points="140 0,70 0,70 110,0 110" stroke-width="1" stroke="black" fill="none" class="sc-aXZVg eMElBf"></polyline><text x="70" y="55" dominant-baseline="middle" text-anchor="start" font-weight="bold" pointer-events="none" dx="5">HTTPS</text></g></svg><svg x="515" y="470" width="57.41666793823242" height="70" class="HTTPS" fill="#ffffff"><g><polyline points="0 70,0 10" stroke-width="1" stroke="black" fill="none" class="sc-aXZVg eMElBf"></polyline><text x="0" y="40" dominant-baseline="middle" text-anchor="start" font-weight="bold" pointer-events="none" dx="5">HTTPS</text></g></svg><svg x="515" y="480" width="320" height="80" class="HTTPS" fill="#ffffff"><g><polyline points="320 80,320 40,0 40,0 0" stroke-width="1" stroke="black" fill="none" class="sc-aXZVg eMElBf"></polyline><text x="160" y="40" dominant-baseline="text-after-edge" text-anchor="middle" font-weight="bold" pointer-events="none" dy="-5">HTTPS</text></g></svg></svg>